<?xml version="1.0" encoding="utf-8"?>
<!-- Generator: Adobe Illustrator 25.3.1, SVG Export Plug-In . SVG Version: 6.00 Build 0)  -->
<svg version="1.1" id="圖層_1" xmlns="http://www.w3.org/2000/svg" xmlns:xlink="http://www.w3.org/1999/xlink" x="0px" y="0px"
	 viewBox="0 0 240 240" style="enable-background:new 0 0 240 240;" xml:space="preserve">
<style type="text/css">
	.st0{fill:#FFFFFF;}
	.st1{fill:none;stroke:#FFFFFF;stroke-width:6;stroke-miterlimit:10;}
</style>
<g>
	<g>
		<g>
			<path class="st0" d="M120,41.47c43.3,0,78.53,35.23,78.53,78.53S163.3,198.53,120,198.53S41.47,163.3,41.47,120
				S76.7,41.47,120,41.47 M120,35.47c-46.68,0-84.53,37.84-84.53,84.53s37.84,84.53,84.53,84.53s84.53-37.84,84.53-84.53
				S166.68,35.47,120,35.47L120,35.47z"/>
		</g>
	</g>
	<g>
		<g>
			<line class="st1" x1="166.62" y1="119.87" x2="76.17" y2="119.87"/>
		</g>
		<polyline class="st1" points="119.16,165.78 73.38,120 119.16,74.22 		"/>
	</g>
</g>
<g>
	<g>
		<path class="st0" d="M120,41.47c43.3,0,78.53,35.23,78.53,78.53S163.3,198.53,120,198.53S41.47,163.3,41.47,120
			S76.7,41.47,120,41.47 M120,35.47c-46.68,0-84.53,37.85-84.53,84.53s37.85,84.53,84.53,84.53s84.53-37.84,84.53-84.53
			S166.68,35.47,120,35.47L120,35.47z"/>
	</g>
</g>
</svg>
